<svg id="delivery-man" xmlns="http://www.w3.org/2000/svg" width="71.979" height="68.043" viewBox="0 0 71.979 68.043">
  <path id="Path_2" data-name="Path 2" d="M68.16,34.241H55.953a3.825,3.825,0,0,0-3.82,3.822V52.112H47.567a10.488,10.488,0,0,0,.286-3.276h0a30.643,30.643,0,0,0-2.886-13.4A14.381,14.381,0,0,0,40.5,30.047a9.777,9.777,0,0,0,2.616-6.924,8.947,8.947,0,1,0-17.89,0,1.054,1.054,0,0,0,1.054,1.054H27a7.424,7.424,0,0,0-.1,1.215,7.321,7.321,0,0,0,5.882,7.172,17.771,17.771,0,0,0-.525,4.587l-2.63,2.262-6.4.517-7.381-2.44a2.235,2.235,0,0,0-2.108,0,1.873,1.873,0,0,0-.656,1.573v5.488a1.054,1.054,0,0,0,1.054,1.054h1.255l-1.925,6.653a1.054,1.054,0,0,0,2.026.586l2.1-7.239h3c-3.728,11.369-1.6,18.958,1.669,26.639h-1.9l-7.894-8.827,1.669-5.767a1.054,1.054,0,0,0-2.026-.586l-1.6,5.516A10.606,10.606,0,0,0,.027,70.8a1.054,1.054,0,0,0,.791,1.264l1.5.344A8.067,8.067,0,0,0,17.906,76l1.181.272a1.377,1.377,0,0,0,1.019-.057A1.21,1.21,0,0,0,20.7,75.4a10.489,10.489,0,0,0,.17-1.05H42.922a8.985,8.985,0,0,0,17.782,0h.8l.2,0a1.444,1.444,0,0,0,1.095-.4,1.351,1.351,0,0,0,.373-1.025,11.953,11.953,0,0,0-.432-2.856c.84-5.1.032-8.2-1.166-10.634a2.776,2.776,0,0,0,1.26-2.323v-2.9h5.326a3.825,3.825,0,0,0,3.82-3.822V38.063a3.825,3.825,0,0,0-3.82-3.822ZM13.508,78.234a5.914,5.914,0,0,1-4.5.758h0a5.974,5.974,0,0,1-4.619-6.1l11.437,2.632A5.927,5.927,0,0,1,13.508,78.234Zm5.276-4.2-16.4-3.774A8.491,8.491,0,0,1,10.777,64.7l8.035,8.984Q18.8,73.86,18.783,74.036ZM34.71,55.662a9.387,9.387,0,0,0-.306,3.18v3.979H30.543V57.362c0-6.171,3.368-7.271,4.88-7.453H45.76a4.47,4.47,0,0,1-.958,3.028c-.7.736-1.9,1.1-3.658,1.1l-3.785,0a2.54,2.54,0,0,0-2.649,1.623ZM34.4,64.929v2.518H26.885a3,3,0,0,1,.727-1.8,2.6,2.6,0,0,1,1.877-.714ZM45.713,47.8H36.124a39.371,39.371,0,0,1-1.011-3.9l2.915-1.892A4.352,4.352,0,0,0,40.3,38a3.728,3.728,0,0,0-2.323-3.052,3.806,3.806,0,0,0-3.539.39,12.449,12.449,0,0,1,.509-2.673,7.432,7.432,0,0,0,1.334-.263,8.735,8.735,0,0,0,2.461-.975C40.774,32.639,45.24,36.575,45.713,47.8Zm-18.3-25.732a6.826,6.826,0,0,1,13.6,1.054,7.16,7.16,0,0,1-3.94,6.8V24.371a2.1,2.1,0,0,0-2.118-2.3q-.048,0-.1,0ZM29,25.392a5.25,5.25,0,0,1,.141-1.215H34.8c.065.007.113.015.147.022a1.253,1.253,0,0,1,.01.172v6.168a5.216,5.216,0,0,1-.757.056h-.007A5.2,5.2,0,0,1,29,25.392Zm-1.367,16.3,2.5-.2a1.055,1.055,0,0,0,.6-.252l4.507-3.877h0A2.094,2.094,0,0,1,36.6,36.79,1.623,1.623,0,0,1,38.2,38.2a2.326,2.326,0,0,1-1.321,2.033L31.858,43.5H27.638V41.689Zm-4.456.36,2.347-.19V43.5H22.8c-.354,0-.44-.294-.45-.54A.837.837,0,0,1,23.182,42.049Zm-2.5-.728a3.046,3.046,0,0,0-.388,2.167s0,.006,0,.009H15.188v-4l5.5,1.819,0,.008Zm2.121,4.285H32.17a1.054,1.054,0,0,0,.574-.17l.477-.31c.23,1.015.491,2,.776,2.935-2.15.635-5.564,2.686-5.564,9.3v5.565a4.4,4.4,0,0,0-2.347,1.26,5.143,5.143,0,0,0-1.318,3.26H22.642c-2.143-6.177-2.958-12.75.165-21.841Zm1.738,26.635c-.39-.9-.765-1.789-1.119-2.685H34.374c1.419,0,2.138-.646,2.138-1.92V59.9h8.323a1.054,1.054,0,1,0,0-2.109H36.52a4.773,4.773,0,0,1,.162-1.378c.053-.141.1-.262.678-.262l3.786,0c2.371,0,4.067-.576,5.185-1.754.052-.055.1-.112.15-.169H60.725v2.9a.677.677,0,0,1-.667.669h-10.5a1.054,1.054,0,1,0,0,2.109h9.877a12.449,12.449,0,0,1,1.538,6.513,11.443,11.443,0,0,0-17.428-1.361,11.616,11.616,0,0,0-3.315,7.2Zm27.268,7.693a6.948,6.948,0,0,1-6.749-5.581h13.5a6.948,6.948,0,0,1-6.749,5.581Zm7.946-7.689H42.352a9.458,9.458,0,0,1,9.33-8.488,9.356,9.356,0,0,1,8.973,6.7c0,.012.008.025.012.037a9.732,9.732,0,0,1,.348,1.747ZM69.871,50.4a1.714,1.714,0,0,1-1.711,1.713H54.242V46.667H69.871Zm0-5.84H54.242V42.316H69.871Zm0-4.351H54.242V38.063a1.714,1.714,0,0,1,1.711-1.713H68.16a1.714,1.714,0,0,1,1.711,1.713Z" transform="translate(0 -14)"/>
</svg>
