<svg id="discount" xmlns="http://www.w3.org/2000/svg" width="70.829" height="70.911" viewBox="0 0 70.829 70.911">
  <g id="Group_97" data-name="Group 97" transform="translate(0 38.753)">
    <g id="Group_96" data-name="Group 96">
      <path id="Path_28" data-name="Path 28" d="M70.183,282.256a5.949,5.949,0,0,0-4.32-2.435,4.285,4.285,0,0,0-3.479,1.3c-.193.2-.4.428-.621.669a5.921,5.921,0,0,0-3.532-1.552,4.285,4.285,0,0,0-3.479,1.3c-1.914,2.026-5.3,5.983-7.963,9.133a5.506,5.506,0,0,0-1.111-.5c-1.272-.548-18.806-8.036-26.578-8.036-12.555,0-18.323,6.748-18.562,7.035a1.041,1.041,0,0,0,1.6,1.335,16.232,16.232,0,0,1,4.113-3.148A25.935,25.935,0,0,1,19.1,284.214c7.467,0,25.618,7.807,25.8,7.886a1.032,1.032,0,0,0,.1.038,3.4,3.4,0,0,1,2.233,4.258,3.427,3.427,0,0,1-1.567,1.944,3.585,3.585,0,0,1-2.725.279l-11.356-3.128a1.041,1.041,0,0,0-.553,2.007l11.34,3.123a5.485,5.485,0,0,0,7.092-4.991l3.046-.321a1.041,1.041,0,0,0,.691-.369c.075-.09,7.543-9.056,10.694-12.391,1.309-1.386,3.647-.4,4.593.917,1.454,2.031-.353,4.249-.941,4.88-2.891,3.1-8.193,9.493-9.146,10.645L36.825,309.782l-20.652-8.7a1.04,1.04,0,0,0-.4-.082H1.337a1.041,1.041,0,0,0,0,2.082H15.559l20.9,8.8a1.04,1.04,0,0,0,.869-.028l22.2-11.1a1.041,1.041,0,0,0,.337-.268c.061-.074,6.13-7.423,9.2-10.721C71.335,287.339,71.761,284.46,70.183,282.256ZM51.875,293.284l-2.712.285a5.559,5.559,0,0,0-.819-1.515c2.267-2.683,5.95-7,7.921-9.088a2.237,2.237,0,0,1,1.824-.652,3.846,3.846,0,0,1,2.282,1.023C57.249,286.862,53,291.94,51.875,293.284Z" transform="translate(-0.296 -279.81)"/>
    </g>
  </g>
  <g id="Group_99" data-name="Group 99" transform="translate(11.111)">
    <g id="Group_98" data-name="Group 98">
      <path id="Path_29" data-name="Path 29" d="M128.182,21.093h-8.951V9.3a1.041,1.041,0,1,0-2.082,0V22.134a1.041,1.041,0,0,0,1.041,1.041h7.178l-20.5,17.571-20.5-17.571h7.178a1.041,1.041,0,0,0,1.041-1.041V2.081H117.15V4.51a1.041,1.041,0,0,0,2.082,0V1.041A1.041,1.041,0,0,0,118.19,0H91.547a1.041,1.041,0,0,0-1.041,1.041V21.093H81.555a1.049,1.049,0,0,0-.677,1.831l23.313,19.983a1.05,1.05,0,0,0,1.355,0l23.313-19.983A1.049,1.049,0,0,0,128.182,21.093Z" transform="translate(-80.524)"/>
    </g>
  </g>
  <g id="Group_101" data-name="Group 101" transform="translate(27.762 6.661)">
    <g id="Group_100" data-name="Group 100">
      <path id="Path_30" data-name="Path 30" d="M215.835,48.4a1.041,1.041,0,0,0-1.472,0L201.042,61.721a1.049,1.049,0,0,0,.736,1.777,1.037,1.037,0,0,0,.736-.3L215.835,49.87A1.041,1.041,0,0,0,215.835,48.4Z" transform="translate(-200.745 -48.094)"/>
    </g>
  </g>
  <g id="Group_103" data-name="Group 103" transform="translate(37.745 15.542)">
    <g id="Group_102" data-name="Group 102">
      <path id="Path_31" data-name="Path 31" d="M276.09,112.219a3.261,3.261,0,1,0,3.261,3.261A3.265,3.265,0,0,0,276.09,112.219Zm0,4.441a1.18,1.18,0,1,1,1.18-1.18A1.181,1.181,0,0,1,276.09,116.66Z" transform="translate(-272.829 -112.219)"/>
    </g>
  </g>
  <g id="Group_105" data-name="Group 105" transform="translate(26.644 6.661)">
    <g id="Group_104" data-name="Group 104">
      <path id="Path_32" data-name="Path 32" d="M195.933,48.094a3.261,3.261,0,1,0,3.261,3.261A3.265,3.265,0,0,0,195.933,48.094Zm0,4.441a1.18,1.18,0,1,1,1.18-1.18A1.181,1.181,0,0,1,195.933,52.535Z" transform="translate(-192.672 -48.094)"/>
    </g>
  </g>
</svg>
