<svg id="restaurant" xmlns="http://www.w3.org/2000/svg" width="71.767" height="50.491" viewBox="0 0 71.767 50.491">
  <path id="Path_24" data-name="Path 24" d="M3.363,28.4V57.171a2.8,2.8,0,0,0,5.607,0V28.4a4.48,4.48,0,0,0,3.364-4.326V10.619a1.121,1.121,0,1,0-2.243,0V19.59H8.97V10.619a1.121,1.121,0,1,0-2.243,0V19.59H5.606V10.619a1.121,1.121,0,1,0-2.243,0V19.59H2.242V10.619a1.121,1.121,0,1,0-2.243,0V24.078A4.48,4.48,0,0,0,3.363,28.4ZM6.727,57.172a.561.561,0,1,1-1.121,0V28.563H6.727ZM2.242,21.833h7.849v2.245A2.245,2.245,0,0,1,7.848,26.32H4.484a2.245,2.245,0,0,1-2.243-2.243Z" transform="translate(0.001 -9.485)"/>
  <path id="Path_25" data-name="Path 25" d="M57.119,9.488A1.12,1.12,0,0,0,56,10.609c0,.007,0,.011,0,.017h0V57.174a2.8,2.8,0,1,0,5.607,0V37.544h2.243a1.12,1.12,0,0,0,1.121-1.121V17.34A7.861,7.861,0,0,0,57.119,9.488Zm2.246,47.686a.561.561,0,0,1-1.121,0V37.544h1.121ZM62.729,35.3H58.244V11.845a5.619,5.619,0,0,1,4.485,5.495Z" transform="translate(6.795 -9.486)"/>
  <path id="Path_26" data-name="Path 26" d="M35.229,9.486a25.23,25.23,0,1,0,25.23,25.23A25.259,25.259,0,0,0,35.229,9.486Zm0,48.217A22.987,22.987,0,1,1,58.216,34.716,23.013,23.013,0,0,1,35.229,57.7Z" transform="translate(1.214 -9.486)"/>
  <path id="Path_27" data-name="Path 27" d="M34.38,16.486A17.381,17.381,0,1,0,51.76,33.867,17.4,17.4,0,0,0,34.38,16.486ZM34.38,49A15.138,15.138,0,1,1,49.518,33.867,15.155,15.155,0,0,1,34.38,49Z" transform="translate(2.064 -8.637)"/>
</svg>
