<svg id="Group_152" data-name="Group 152" xmlns="http://www.w3.org/2000/svg" width="78.325" height="55.105" viewBox="0 0 78.325 55.105">
  <path id="Path_24" data-name="Path 24" d="M3.67,30.131v31.4a3.059,3.059,0,0,0,6.119,0v-31.4a4.89,4.89,0,0,0,3.671-4.721V10.722a1.224,1.224,0,0,0-2.448,0v9.79H9.789v-9.79a1.224,1.224,0,1,0-2.448,0v9.79H6.118v-9.79a1.224,1.224,0,1,0-2.448,0v9.79H2.447v-9.79a1.224,1.224,0,1,0-2.448,0V25.41A4.89,4.89,0,0,0,3.67,30.131Zm3.671,31.4a.612.612,0,1,1-1.224,0V30.3H7.342ZM2.447,22.96h8.567v2.45a2.45,2.45,0,0,1-2.448,2.448H4.894A2.45,2.45,0,0,1,2.447,25.41Z" transform="translate(0.001 -9.483)" fill="#f2b542"/>
  <path id="Path_25" data-name="Path 25" d="M57.222,9.488A1.223,1.223,0,0,0,56,10.712c0,.007,0,.012,0,.018h0v50.8a3.059,3.059,0,1,0,6.119,0V40.107h2.448a1.223,1.223,0,0,0,1.224-1.224V18.057A8.58,8.58,0,0,0,57.222,9.488Zm2.451,52.043a.612.612,0,1,1-1.224,0V40.107h1.224ZM63.344,37.66h-4.9V12.06a6.133,6.133,0,0,1,4.9,6Z" transform="translate(12.533 -9.486)" fill="#f2b542"/>
  <path id="Path_26" data-name="Path 26" d="M37.534,9.486A27.535,27.535,0,1,0,65.07,37.021,27.567,27.567,0,0,0,37.534,9.486Zm0,52.623A25.088,25.088,0,1,1,62.622,37.021,25.116,25.116,0,0,1,37.534,62.109Z" transform="translate(2.239 -9.486)" fill="#f2b542"/>
  <path id="Path_27" data-name="Path 27" d="M35.968,16.486A18.969,18.969,0,1,0,54.937,35.455,18.99,18.99,0,0,0,35.968,16.486Zm0,35.49A16.521,16.521,0,1,1,52.489,35.455,16.54,16.54,0,0,1,35.968,51.976Z" transform="translate(3.805 -7.919)" fill="#f2b542"/>
</svg>
