<svg id="spaguetti_1_" data-name="spaguetti (1)" xmlns="http://www.w3.org/2000/svg" width="56.237" height="56.237" viewBox="0 0 56.237 56.237">
  <g id="Group_49" data-name="Group 49" transform="translate(0 44.989)">
    <g id="Group_48" data-name="Group 48">
      <path id="Path_10" data-name="Path 10" d="M55.3,409.6H.937a.937.937,0,0,0-.937.937,10.322,10.322,0,0,0,10.31,10.31H45.927a10.322,10.322,0,0,0,10.31-10.31A.936.936,0,0,0,55.3,409.6Zm-9.373,9.373H10.31a8.448,8.448,0,0,1-8.384-7.5H54.31A8.446,8.446,0,0,1,45.927,418.973Z" transform="translate(0 -409.6)"/>
    </g>
  </g>
  <g id="Group_51" data-name="Group 51" transform="translate(18.119 30.93)">
    <g id="Group_50" data-name="Group 50">
      <path id="Path_11" data-name="Path 11" d="M174.967,281.6h-.012a14.91,14.91,0,0,0-9.988,3.831l1.253,1.393a13.045,13.045,0,0,1,8.735-3.349h.01c5.194,0,9.635,2.712,11.314,6.909l1.741-.7C186.056,284.775,180.931,281.6,174.967,281.6Z" transform="translate(-164.967 -281.6)"/>
    </g>
  </g>
  <g id="Group_53" data-name="Group 53" transform="translate(19.449 34.69)">
    <g id="Group_52" data-name="Group 52">
      <path id="Path_12" data-name="Path 12" d="M192.9,318.405a11.262,11.262,0,0,0-15.834,1.509l1.445,1.193a9.371,9.371,0,0,1,14.893.579l1.535-1.077A11.351,11.351,0,0,0,192.9,318.405Z" transform="translate(-177.067 -315.835)"/>
    </g>
  </g>
  <g id="Group_55" data-name="Group 55" transform="translate(22.762 38.431)">
    <g id="Group_54" data-name="Group 54">
      <path id="Path_13" data-name="Path 13" d="M217.836,352.035a7.508,7.508,0,0,0-10.6.107l1.339,1.312a5.624,5.624,0,0,1,9.641,3.937h1.875A7.535,7.535,0,0,0,217.836,352.035Z" transform="translate(-207.232 -349.895)"/>
    </g>
  </g>
  <g id="Group_57" data-name="Group 57" transform="translate(37.491 34.679)">
    <g id="Group_56" data-name="Group 56">
      <path id="Path_14" data-name="Path 14" d="M342.312,315.733h-.978v1.875h.941a10.407,10.407,0,0,1,10.31,9.451l1.867-.156A12.248,12.248,0,0,0,342.312,315.733Z" transform="translate(-341.334 -315.733)"/>
    </g>
  </g>
  <g id="Group_59" data-name="Group 59" transform="translate(32.106 38.431)">
    <g id="Group_58" data-name="Group 58">
      <path id="Path_15" data-name="Path 15" d="M304.221,352.043a8.437,8.437,0,0,0-11.911.664l1.4,1.25a6.561,6.561,0,0,1,11.4,3.551l1.861-.236A8.441,8.441,0,0,0,304.221,352.043Z" transform="translate(-292.31 -349.895)"/>
    </g>
  </g>
  <g id="Group_61" data-name="Group 61" transform="translate(33.846 42.169)">
    <g id="Group_60" data-name="Group 60">
      <path id="Path_16" data-name="Path 16" d="M313.849,384.067a4.691,4.691,0,0,0-5.7,3.378l1.816.465a2.812,2.812,0,0,1,5.447,0l1.816-.465A4.687,4.687,0,0,0,313.849,384.067Z" transform="translate(-308.147 -383.919)"/>
    </g>
  </g>
  <g id="Group_63" data-name="Group 63" transform="translate(5.627 34.659)">
    <g id="Group_62" data-name="Group 62">
      <path id="Path_17" data-name="Path 17" d="M64.372,315.587a12.185,12.185,0,0,0-13.138,11.15l1.868.154a10.308,10.308,0,0,1,11.117-9.434,10.361,10.361,0,0,1,4.348,1.367l.944-1.621A12.258,12.258,0,0,0,64.372,315.587Z" transform="translate(-51.234 -315.546)"/>
    </g>
  </g>
  <g id="Group_65" data-name="Group 65" transform="translate(9.437 38.407)">
    <g id="Group_64" data-name="Group 64">
      <path id="Path_18" data-name="Path 18" d="M95.318,349.74a8.447,8.447,0,0,0-9.4,7.341l1.861.229a6.56,6.56,0,0,1,13.023,0l1.862-.229A8.424,8.424,0,0,0,95.318,349.74Z" transform="translate(-85.914 -349.675)"/>
    </g>
  </g>
  <g id="Group_67" data-name="Group 67" transform="translate(13.274 42.185)">
    <g id="Group_66" data-name="Group 66">
      <path id="Path_19" data-name="Path 19" d="M126.567,384.226a4.685,4.685,0,0,0-5.719,3.349l1.814.474a2.812,2.812,0,0,1,5.442,0l1.813-.475A4.69,4.69,0,0,0,126.567,384.226Z" transform="translate(-120.848 -384.072)"/>
    </g>
  </g>
  <g id="Group_69" data-name="Group 69" transform="translate(24.369 42.177)">
    <g id="Group_68" data-name="Group 68">
      <path id="Path_20" data-name="Path 20" d="M225.616,384a3.753,3.753,0,0,0-3.749,3.749h1.875a1.875,1.875,0,0,1,3.749,0h1.875A3.753,3.753,0,0,0,225.616,384Z" transform="translate(-221.867 -384)"/>
    </g>
  </g>
  <g id="Group_71" data-name="Group 71" transform="translate(9.373 3.749)">
    <g id="Group_70" data-name="Group 70">
      <rect id="Rectangle_25" data-name="Rectangle 25" width="7.498" height="1.875"/>
    </g>
  </g>
  <g id="Group_73" data-name="Group 73" transform="translate(11.247 7.498)">
    <g id="Group_72" data-name="Group 72">
      <rect id="Rectangle_26" data-name="Rectangle 26" width="5.624" height="1.875"/>
    </g>
  </g>
  <g id="Group_75" data-name="Group 75" transform="translate(3.749)">
    <g id="Group_74" data-name="Group 74">
      <path id="Path_21" data-name="Path 21" d="M37.693,20.155a5.691,5.691,0,0,1,0-5.63,7.574,7.574,0,0,0,0-7.492,5.691,5.691,0,0,1,0-5.63A.937.937,0,0,0,36.879,0H34.133V1.875h1.312a7.578,7.578,0,0,0,.62,6.089,5.691,5.691,0,0,1,0,5.63,7.574,7.574,0,0,0,0,7.492,5.691,5.691,0,0,1,0,5.63,7.529,7.529,0,0,0-.038,7.417,14.466,14.466,0,0,1,.722,1.928l1.8-.53a16.224,16.224,0,0,0-.854-2.253,5.691,5.691,0,0,1,0-5.63A7.574,7.574,0,0,0,37.693,20.155Z" transform="translate(-34.133)"/>
    </g>
  </g>
  <g id="Group_77" data-name="Group 77" transform="translate(8.571)">
    <g id="Group_76" data-name="Group 76">
      <path id="Path_22" data-name="Path 22" d="M125.7,6.833A5,5,0,0,0,120.582,2l-27.311.8L91.841,1.37A4.654,4.654,0,0,0,88.531,0H79.838a.937.937,0,0,0-.814.471,7.574,7.574,0,0,0,0,7.492,5.691,5.691,0,0,1,0,5.63,7.574,7.574,0,0,0,0,7.492,5.691,5.691,0,0,1,0,5.63,7.574,7.574,0,0,0,0,7.492,5.65,5.65,0,0,1,.337.7l1.74-.7a7.422,7.422,0,0,0-.45-.932,5.69,5.69,0,0,1,0-5.63,7.574,7.574,0,0,0,0-7.492,5.69,5.69,0,0,1,0-5.63,7.467,7.467,0,0,0,.62-1.4H88.53a4.656,4.656,0,0,0,3.311-1.371l1.418-1.418,27.172,1.6c.1.006.233,0,.291.008A4.983,4.983,0,0,0,125.7,6.964Zm-4.976,3.231a.83.83,0,0,0-.178,0L92.949,8.437a.924.924,0,0,0-.718.273l-1.715,1.715a2.794,2.794,0,0,1-1.987.822h-6.9a7.56,7.56,0,0,0-.977-4.215,5.7,5.7,0,0,1-.241-5.158h8.12a2.791,2.791,0,0,1,1.986.823l1.715,1.715a.917.917,0,0,0,.69.274l27.714-.816a3.1,3.1,0,1,1,.085,6.193Z" transform="translate(-78.033 0)"/>
    </g>
  </g>
  <g id="Group_79" data-name="Group 79" transform="translate(12.319 12.025)">
    <g id="Group_78" data-name="Group 78">
      <path id="Path_23" data-name="Path 23" d="M114.776,117.613a5.691,5.691,0,0,1,0-5.629,7.512,7.512,0,0,0,.814-2.087l-1.829-.413a5.657,5.657,0,0,1-.612,1.569,7.574,7.574,0,0,0,0,7.492,5.692,5.692,0,0,1,0,5.632,7.57,7.57,0,0,0-.256,7l1.692-.805a5.692,5.692,0,0,1,.192-5.262A7.574,7.574,0,0,0,114.776,117.613Z" transform="translate(-112.157 -109.483)"/>
    </g>
  </g>
  <g id="Group_81" data-name="Group 81" transform="translate(3.749 3.749)">
    <g id="Group_80" data-name="Group 80">
      <rect id="Rectangle_27" data-name="Rectangle 27" width="1.875" height="1.875"/>
    </g>
  </g>
  <g id="Group_83" data-name="Group 83" transform="translate(3.749 7.498)">
    <g id="Group_82" data-name="Group 82">
      <rect id="Rectangle_28" data-name="Rectangle 28" width="2.812" height="1.875"/>
    </g>
  </g>
  <g id="Group_85" data-name="Group 85" transform="translate(3.749 11.247)">
    <g id="Group_84" data-name="Group 84">
      <rect id="Rectangle_29" data-name="Rectangle 29" width="3.749" height="1.875"/>
    </g>
  </g>
</svg>
