<svg id="tray" xmlns="http://www.w3.org/2000/svg" width="72.502" height="72.503" viewBox="0 0 72.502 72.503">
  <g id="Group_31" data-name="Group 31" transform="translate(12.084 44.709)">
    <g id="Group_30" data-name="Group 30">
      <path id="Path_3" data-name="Path 3" d="M137.873,318.37c-.07-.117-.144-.23-.218-.329a4.709,4.709,0,0,0-6.572-1.085l-13.51,9.647H103.459a1.208,1.208,0,1,1,0-2.417h7.854a4.234,4.234,0,0,0,4.229-4.229c0-.013,0-.124,0-.137a4.244,4.244,0,0,0-4.324-4.093H95.5a6.064,6.064,0,0,0-3.82,1.4l-5.909,4.918a1.212,1.212,0,0,0-.435.929v14.5a1.208,1.208,0,0,0,1.208,1.208h29.981a8.478,8.478,0,0,0,5.385-1.944l14.649-12.1A4.749,4.749,0,0,0,137.873,318.37Zm-2.785,4.353L120.368,334.88a6.063,6.063,0,0,1-3.846,1.39H87.751V323.544l5.475-4.558a3.635,3.635,0,0,1,2.283-.842h15.747a1.846,1.846,0,0,1,1.871,1.814,1.815,1.815,0,0,1-1.813,1.813h-7.854a3.625,3.625,0,1,0,0,7.25h14.5a1.224,1.224,0,0,0,.7-.225l13.826-9.874a2.293,2.293,0,0,1,3.208.536c.036.05.069.1.1.152A2.346,2.346,0,0,1,135.088,322.723Z" transform="translate(-85.334 -315.726)"/>
    </g>
  </g>
  <g id="Group_33" data-name="Group 33" transform="translate(0 49.543)">
    <g id="Group_32" data-name="Group 32">
      <path id="Path_4" data-name="Path 4" d="M13.256,349.867H0v2.417H12.047v18.126H0v2.417H13.256a1.208,1.208,0,0,0,1.208-1.208V351.075A1.208,1.208,0,0,0,13.256,349.867Z" transform="translate(0 -349.867)"/>
    </g>
  </g>
  <g id="Group_35" data-name="Group 35" transform="translate(2.417 60.419)">
    <g id="Group_34" data-name="Group 34">
      <path id="Path_5" data-name="Path 5" d="M20.692,426.667a3.625,3.625,0,1,0,3.625,3.625A3.63,3.63,0,0,0,20.692,426.667Zm0,4.833a1.208,1.208,0,1,1,1.208-1.208A1.21,1.21,0,0,1,20.692,431.5Z" transform="translate(-17.067 -426.667)"/>
    </g>
  </g>
  <g id="Group_37" data-name="Group 37" transform="translate(0 37.46)">
    <g id="Group_36" data-name="Group 36">
      <path id="Path_6" data-name="Path 6" d="M71.294,264.533H1.208A1.208,1.208,0,0,0,0,265.741,8.469,8.469,0,0,0,8.459,274.2H64.044a8.469,8.469,0,0,0,8.459-8.459A1.207,1.207,0,0,0,71.294,264.533Zm-7.25,7.25H8.459a6.051,6.051,0,0,1-5.92-4.833H69.964A6.051,6.051,0,0,1,64.044,271.783Z" transform="translate(0 -264.533)"/>
    </g>
  </g>
  <g id="Group_39" data-name="Group 39" transform="translate(4.833 6.042)">
    <g id="Group_38" data-name="Group 38">
      <path id="Path_7" data-name="Path 7" d="M65.551,42.667A31.454,31.454,0,0,0,34.133,74.085v1.208A1.208,1.208,0,0,0,35.341,76.5H95.76a1.207,1.207,0,0,0,1.208-1.208V74.085A31.453,31.453,0,0,0,65.551,42.667Zm-29,31.418a29,29,0,1,1,58,0Z" transform="translate(-34.133 -42.667)"/>
    </g>
  </g>
  <g id="Group_41" data-name="Group 41" transform="translate(14.049 19.826)">
    <g id="Group_40" data-name="Group 40">
      <path id="Path_8" data-name="Path 8" d="M101.536,140.006a27.014,27.014,0,0,0-2.327,3.022l2.014,1.335a24.692,24.692,0,0,1,2.119-2.753Z" transform="translate(-99.209 -140.006)"/>
    </g>
  </g>
  <g id="Group_43" data-name="Group 43" transform="translate(18.059 10.875)">
    <g id="Group_42" data-name="Group 42">
      <path id="Path_9" data-name="Path 9" d="M145.723,76.8a26.489,26.489,0,0,0-18.192,7.216l1.656,1.761a24.077,24.077,0,0,1,16.538-6.56Z" transform="translate(-127.531 -76.8)"/>
    </g>
  </g>
  <g id="Group_45" data-name="Group 45" transform="translate(32.626)">
    <g id="Group_44" data-name="Group 44">
      <rect id="Rectangle_23" data-name="Rectangle 23" width="7.25" height="2.417"/>
    </g>
  </g>
  <g id="Group_47" data-name="Group 47" transform="translate(35.043 1.208)">
    <g id="Group_46" data-name="Group 46">
      <rect id="Rectangle_24" data-name="Rectangle 24" width="2.417" height="6.042"/>
    </g>
  </g>
</svg>
